<?xml version="1.0" standalone="no"?>
<svg version="1.0" xmlns="http://www.w3.org/2000/svg"
 width="225.000000pt" height="225.000000pt" viewBox="0 0 225.000000 225.000000"
 preserveAspectRatio="xMidYMid meet">
<g transform="translate(0.000000,225.000000) scale(0.100000,-0.100000)"
fill="#000000" stroke="none">
<path d="M0 2175 c0 -67 3 -79 25 -101 15 -15 22 -30 18 -40 -3 -9 -1 -19 6
-23 14 -9 -9 -70 -33 -91 -18 -14 -22 -50 -6 -50 5 0 7 6 5 13 -3 6 4 18 16
25 17 11 27 11 50 2 29 -13 39 -30 17 -30 -9 0 -9 -3 0 -12 10 -10 15 -10 21
1 5 8 16 11 25 8 9 -4 16 -1 16 6 0 7 10 17 23 22 12 6 21 16 19 23 -3 17 27
27 41 13 6 -6 16 -11 22 -11 10 0 37 45 48 82 4 11 13 15 26 11 29 -8 36 19
17 66 -15 38 -14 40 4 46 11 4 20 15 20 26 0 12 10 23 25 29 28 11 30 18 11
43 -12 15 -35 17 -215 17 l-201 0 0 -75z"/>
<path d="M720 2235 c0 -8 7 -15 16 -15 8 0 12 -4 9 -10 -3 -5 -16 -10 -28 -10
-16 0 -18 -3 -9 -12 9 -9 5 -17 -14 -35 -14 -12 -32 -23 -40 -23 -7 0 -14 -7
-14 -15 0 -10 10 -15 29 -15 32 0 62 -23 57 -43 -1 -7 -1 -9 1 -4 7 12 18 8
42 -12 19 -17 27 -18 49 -8 20 9 26 9 30 -1 2 -6 10 -12 19 -12 27 0 7 -25
-23 -28 -16 -2 -35 -9 -42 -14 -9 -8 -11 -7 -6 6 4 10 1 16 -9 16 -8 0 -20 6
-27 14 -18 22 -43 8 -36 -20 6 -22 5 -23 -19 -12 -14 6 -25 15 -25 20 0 4 -12
8 -27 7 -16 -1 -36 2 -46 6 -13 5 -16 3 -11 -8 3 -8 0 -18 -5 -22 -6 -3 -9
-11 -5 -16 3 -6 12 -3 20 8 13 17 13 17 14 -2 0 -12 6 -27 13 -34 10 -10 5
-18 -23 -42 -19 -16 -40 -29 -46 -29 -7 0 -14 -3 -16 -7 -1 -5 -25 -26 -52
-47 -26 -22 -59 -51 -72 -65 -14 -14 -33 -35 -43 -46 -64 -69 -135 -195 -184
-325 -24 -64 -25 -65 -58 -62 -19 1 -38 7 -42 11 -12 12 10 51 28 51 8 0 15 5
15 10 0 6 -5 10 -11 10 -12 0 -1 43 13 48 5 2 4 10 -3 18 -6 8 -8 15 -3 15 5
1 -18 7 -51 13 -56 11 -60 13 -66 44 -13 62 -19 45 -19 -48 0 -73 3 -91 12
-82 7 7 21 12 32 12 18 0 17 -4 -11 -29 l-33 -29 0 -126 c0 -129 6 -145 39
-113 11 10 13 9 9 -3 -2 -8 -14 -19 -26 -25 -21 -9 -22 -16 -22 -147 0 -76 4
-138 9 -138 5 0 16 10 25 23 l17 22 -6 -22 c-5 -18 -2 -23 13 -23 15 0 18 -5
14 -25 -5 -29 -22 -34 -22 -6 0 20 -17 31 -37 24 -17 -6 -18 -123 -2 -123 7 0
9 -9 5 -23 -3 -12 -9 -60 -12 -106 -6 -75 -5 -83 10 -78 9 4 16 2 16 -3 0 -6
4 -10 9 -10 13 0 21 42 11 55 -6 7 -6 15 -2 19 4 4 -2 14 -12 22 -19 13 -11
20 17 15 5 -1 6 3 2 9 -3 5 1 13 9 16 9 3 16 10 16 16 0 17 28 38 53 38 24 0
65 35 54 46 -3 3 -16 -1 -29 -10 -31 -22 -33 -21 -57 20 -21 35 -28 73 -13 75
49 7 72 7 72 -1 0 -6 5 -10 10 -10 6 0 10 7 10 16 0 9 6 14 12 12 7 -3 18 -31
25 -64 16 -76 16 -74 -3 -74 -25 0 -12 -35 14 -38 13 -2 28 -14 34 -27 6 -13
16 -22 22 -19 7 2 12 -11 12 -35 2 -46 47 -127 75 -136 22 -7 25 -21 7 -28
-20 -6 9 -53 31 -53 19 0 18 17 0 41 -5 6 -11 30 -15 53 -7 46 7 58 26 22 6
-11 18 -20 28 -20 13 0 14 -2 3 -9 -9 -6 -10 -11 -2 -15 6 -4 16 -4 21 -1 6 3
10 1 10 -5 0 -7 11 -21 25 -32 17 -13 24 -26 20 -38 -3 -10 -1 -21 5 -25 5 -3
10 -13 10 -22 0 -15 -2 -14 -18 0 -10 10 -28 17 -40 17 -12 0 -22 5 -22 10 0
6 -4 10 -10 10 -5 0 -10 -3 -10 -7 0 -11 122 -99 164 -120 20 -9 36 -23 36
-30 0 -7 5 -13 10 -13 6 0 10 -7 10 -16 0 -8 4 -13 8 -10 5 3 33 1 63 -4 72
-13 77 -15 86 -24 15 -14 75 -36 85 -30 5 3 14 2 21 -3 21 -16 83 -15 99 0 10
11 28 13 61 10 53 -6 68 -18 37 -28 -12 -4 -19 -12 -17 -18 4 -13 458 -22 487
-10 42 18 99 21 111 7 16 -19 36 -17 48 4 6 9 11 11 11 5 0 -7 9 -13 20 -13
26 0 26 31 0 55 -16 15 -17 19 -5 31 8 8 20 13 27 12 8 -2 14 9 16 30 4 36 5
37 31 20 32 -20 51 -4 46 39 -2 21 -4 41 -4 46 -1 4 -7 7 -15 7 -7 0 -16 9
-19 20 -9 36 23 34 36 -3 4 -10 11 -16 16 -13 5 3 8 -8 7 -25 -1 -40 28 -63
48 -37 6 9 25 18 41 20 23 2 31 9 38 38 6 23 5 36 -2 38 -6 2 -11 12 -11 22 0
10 -5 22 -10 25 -8 5 -8 11 -1 19 12 15 3 58 -16 69 -7 4 -13 14 -13 22 0 24
19 27 46 6 33 -26 53 -27 31 -3 -21 23 -21 29 1 35 16 4 16 5 0 6 -21 1 -21 2
-8 35 5 14 16 26 25 26 8 0 15 5 15 10 0 9 -14 14 -32 11 -5 0 -8 3 -8 9 0 13
25 13 68 1 29 -9 32 -8 32 13 0 15 -10 28 -27 37 -27 14 -26 14 40 17 64 3 67
4 67 27 0 22 -4 25 -40 25 -29 0 -40 -4 -40 -15 0 -22 -32 -4 -54 29 -12 19
-13 31 -6 51 13 34 27 32 44 -7 9 -20 15 -26 15 -15 1 13 10 17 40 17 22 0 41
-5 44 -12 2 -7 5 64 5 157 0 94 -2 164 -5 158 -2 -7 -20 -13 -38 -13 -20 0
-35 -6 -39 -15 -7 -19 -26 -19 -26 0 0 8 5 15 10 15 6 0 10 5 10 10 0 6 -18
10 -40 10 -38 0 -40 2 -40 30 0 20 -5 30 -15 30 -19 0 -19 24 0 40 10 9 15 9
15 1 0 -6 7 -11 15 -11 9 0 18 -7 21 -15 4 -8 15 -15 25 -15 14 0 19 -7 19
-25 0 -22 4 -25 40 -25 36 0 40 3 40 25 0 18 -5 25 -20 25 -13 0 -20 7 -20 20
0 11 -4 20 -10 20 -5 0 -10 9 -10 20 0 11 -4 20 -10 20 -5 0 -10 -9 -10 -20 0
-11 -7 -20 -15 -20 -16 0 -18 12 -9 47 3 12 13 21 22 21 10 0 25 3 35 7 14 6
20 2 24 -14 3 -11 11 -21 19 -21 11 0 13 48 13 252 0 218 -2 255 -16 270 -9
10 -22 18 -30 18 -16 0 -17 -26 -1 -36 7 -5 5 -11 -7 -21 -23 -16 -44 -18 -28
-2 12 12 -11 69 -29 69 -6 0 -4 8 5 18 22 24 23 72 2 72 -11 0 -15 11 -15 40
0 33 4 40 19 40 10 0 21 -7 25 -15 3 -8 1 -15 -4 -15 -12 0 -13 -40 -2 -56 4
-6 15 -13 24 -17 9 -3 24 -22 33 -41 10 -20 19 -36 21 -36 2 0 3 79 2 175 -1
163 -2 175 -20 175 -20 0 -24 15 -7 26 6 3 16 0 21 -7 7 -10 8 -2 4 25 -6 45
-14 56 -26 37 -7 -12 -11 -12 -24 2 -20 20 -21 34 -1 17 20 -17 29 -7 21 23
-5 21 -11 24 -71 25 -38 1 -65 -2 -65 -8 0 -5 -7 -10 -15 -10 -8 0 -15 5 -15
10 0 6 -16 10 -35 10 -38 0 -48 -19 -15 -27 11 -3 20 -9 20 -14 0 -16 -16 -10
-44 16 -26 24 -30 25 -187 25 -155 0 -159 -1 -149 -19 6 -12 6 -22 1 -26 -5
-3 -12 -19 -16 -35 -5 -21 -13 -30 -26 -30 -12 0 -18 -6 -17 -17 3 -41 -3 -63
-17 -63 -9 0 -15 -9 -15 -25 0 -14 5 -25 10 -25 19 0 10 -39 -15 -64 -30 -30
-50 -25 -64 16 -7 21 -15 28 -26 24 -8 -3 -15 -1 -15 4 0 6 -9 10 -20 10 -13
0 -20 -7 -20 -20 0 -16 -4 -18 -23 -11 -13 5 -64 17 -114 27 -72 13 -93 21
-96 36 -3 10 -14 18 -25 18 -11 0 -23 8 -25 18 -3 11 -5 7 -6 -10 -1 -33 -21
-40 -114 -43 -47 -2 -67 1 -64 9 2 6 -5 23 -15 39 -11 15 -15 27 -9 27 6 0 11
6 11 13 -1 6 -10 1 -22 -13 l-21 -25 8 35 c11 54 11 55 -9 52 -14 -3 -17 1
-12 13 3 9 6 20 6 24 0 5 11 6 24 4 16 -3 25 1 30 14 3 10 9 24 12 31 4 9 -8
12 -47 12 -49 0 -51 -1 -33 -15 13 -10 15 -14 5 -15 -8 0 -23 8 -34 18 -15 12
-21 14 -24 5 -5 -15 -43 -17 -43 -3 0 6 -9 10 -20 10 -11 0 -20 -7 -20 -15z
m585 -275 c6 -4 28 -11 50 -14 79 -14 296 -147 287 -175 -3 -9 0 -12 10 -9 8
3 25 -3 39 -13 15 -12 17 -17 7 -13 -26 9 -22 -6 11 -52 43 -59 72 -142 64
-184 l-6 -35 -12 25 c-12 29 -55 100 -60 100 -2 0 6 -24 17 -52 25 -64 47
-162 47 -203 0 -25 -2 -27 -9 -10 -4 11 -13 49 -19 85 -18 100 -74 203 -156
286 -181 182 -462 234 -683 127 -32 -15 -61 -29 -66 -31 -5 -3 -6 0 -2 6 7 11
102 59 163 82 17 6 74 16 125 20 l93 9 -105 -4 c-58 -2 -116 -7 -130 -11 -14
-4 -22 -4 -19 0 4 4 35 13 70 21 55 13 57 14 17 10 -47 -4 -169 -42 -178 -55
-8 -11 -71 -30 -65 -20 4 6 13 10 21 10 8 0 14 3 14 8 0 8 73 42 91 42 5 0 23
7 40 15 16 9 51 20 77 26 26 6 63 14 82 19 38 9 169 2 185 -10z m745 -20 c0
-5 14 -10 30 -10 28 0 30 -2 30 -40 0 -29 -4 -40 -15 -40 -8 0 -15 -4 -15 -10
0 -5 7 -7 16 -3 12 4 15 1 12 -13 -2 -11 -17 -24 -37 -30 -19 -6 -42 -20 -51
-31 -9 -11 -27 -24 -41 -28 -13 -4 -32 -14 -41 -23 -16 -13 -18 -13 -18 0 0 8
9 23 20 33 15 13 17 22 9 36 -8 16 -19 18 -78 14 -55 -3 -70 -1 -75 10 -3 8
-14 15 -25 15 -10 0 -22 7 -25 16 -5 13 -15 15 -44 10 l-37 -6 30 13 c36 16
65 11 66 -12 0 -10 2 -11 6 -3 7 17 33 15 33 -3 0 -19 17 -19 54 0 34 18 37
18 34 4 -2 -7 22 -17 55 -24 31 -6 57 -8 57 -4 0 4 17 13 38 20 20 7 31 14 25
16 -8 3 -13 21 -13 44 0 21 -4 39 -10 39 -5 0 -10 5 -10 10 0 6 5 10 10 10 6
0 10 -4 10 -10z m-742 -151 c26 -6 55 -15 64 -20 10 -5 25 -9 33 -9 8 0 30
-15 48 -33 17 -17 49 -41 70 -52 21 -11 48 -35 60 -52 12 -18 25 -33 30 -33 4
0 7 -5 7 -12 0 -6 8 -21 18 -32 60 -68 91 -276 57 -392 -46 -162 -161 -285
-320 -342 -74 -26 -247 -45 -295 -32 -19 5 -56 14 -82 21 -27 6 -48 16 -48 20
0 5 -9 9 -19 9 -30 0 -51 11 -51 26 0 8 -9 14 -19 14 -23 0 -141 113 -141 135
0 8 -4 15 -10 15 -17 0 -11 18 8 23 9 2 4 3 -11 1 -22 -3 -30 2 -38 24 -6 15
-15 34 -19 42 -18 38 -21 78 -5 93 14 14 13 17 -6 31 -14 10 -20 22 -16 35 3
11 0 22 -5 23 -7 3 -7 20 1 53 6 28 13 59 15 70 5 33 53 120 64 118 7 -2 9 4
5 14 -4 11 -3 14 5 9 8 -5 12 0 12 13 0 27 56 90 86 97 13 3 24 11 24 16 0 6
6 5 15 -2 10 -8 15 -9 15 -2 0 17 42 58 66 66 15 5 24 2 28 -10 6 -15 9 -15
27 5 20 21 22 22 40 5 19 -17 20 -17 26 4 7 27 21 28 39 5 12 -17 13 -17 19 0
4 9 13 17 20 17 7 0 15 7 19 15 7 18 93 20 164 4z m608 -94 c4 -8 1 -22 -6
-30 -7 -9 -11 -17 -9 -19 13 -10 77 -46 82 -46 3 0 -7 15 -24 32 -16 18 -29
36 -29 40 0 5 16 8 35 8 19 0 35 3 35 8 0 4 14 7 30 8 17 1 30 -3 30 -7 0 -5
4 -8 9 -6 5 1 23 -9 41 -22 25 -18 29 -25 19 -32 -27 -17 -49 -10 -49 16 0 30
-15 33 -30 6 -14 -28 -13 -30 16 -41 16 -6 24 -16 22 -27 -4 -21 -28 -29 -28
-9 0 23 -16 28 -47 14 -40 -17 -68 -49 -64 -72 2 -17 1 -18 -12 -8 -10 9 -16
9 -19 2 -1 -5 -9 -1 -17 11 -11 19 -11 21 2 16 11 -4 18 1 23 15 4 15 -1 27
-22 44 -16 13 -35 23 -41 24 -21 0 -15 27 7 33 11 3 20 13 20 22 0 11 -5 15
-14 12 -10 -4 -13 -1 -9 9 7 19 42 18 49 -1z m174 -190 c4 -25 10 -30 38 -33
23 -2 32 -8 32 -21 0 -21 -35 -31 -111 -31 -27 0 -49 -4 -49 -9 0 -14 43 -38
79 -43 28 -4 39 0 67 29 18 18 36 33 39 33 9 0 5 -36 -5 -46 -8 -8 -6 -15 4
-23 16 -14 40 -6 31 10 -4 5 1 9 9 9 9 0 16 -2 16 -5 0 -12 -24 -55 -32 -55
-4 0 -8 -6 -8 -13 0 -15 -69 -20 -85 -7 -6 5 -35 10 -65 12 -43 2 -56 7 -58
21 -4 21 11 22 32 1 9 -8 20 -12 26 -9 17 10 11 25 -10 25 -11 0 -20 4 -20 9
0 5 -16 15 -35 22 -19 7 -35 17 -35 22 0 5 7 7 15 4 17 -7 32 12 18 22 -6 3
-14 17 -18 29 -6 22 -5 23 14 13 23 -13 24 -11 21 37 l-2 34 44 -4 c39 -3 43
-6 48 -33z m-1935 -466 c6 -64 26 -162 36 -174 30 -32 -10 -33 -41 0 -17 18
-30 23 -49 19 -20 -4 -22 -3 -11 5 12 8 12 11 -3 17 -10 4 -23 2 -30 -5 -17
-17 -27 -13 -27 10 0 13 10 23 30 30 34 12 33 10 20 44 -7 19 -6 27 3 30 63
22 70 27 59 34 -7 4 -10 15 -6 25 9 24 15 14 19 -35z m1959 -43 c14 -30 26
-59 26 -65 0 -6 11 -18 25 -27 28 -19 32 -36 10 -54 -13 -11 -15 -8 -16 16
l-1 29 -11 -27 c-14 -35 -34 -36 -47 -3 -14 37 -26 31 -35 -17 l-8 -43 -8 53
c-7 43 -6 58 8 79 11 16 16 41 14 69 -1 25 2 44 8 44 5 0 21 -24 35 -54z
m-358 -26 c-1 -21 -6 -43 -10 -47 -5 -4 -5 2 -2 15 8 25 -8 31 -18 6 -19 -48
12 -45 50 5 20 28 39 42 63 46 40 8 60 -11 33 -31 -16 -11 -16 -14 1 -31 21
-24 22 -47 1 -39 -8 3 -12 2 -9 -4 3 -6 -1 -20 -9 -32 -9 -12 -16 -31 -16 -41
0 -14 -5 -17 -22 -13 -13 3 -17 3 -10 0 18 -9 16 -94 -3 -94 -8 0 -15 5 -15
10 0 6 -11 10 -25 10 -17 0 -23 -4 -19 -14 4 -9 -6 -16 -33 -21 -21 -4 -32
-10 -25 -12 6 -3 12 -11 12 -19 0 -8 4 -14 9 -14 6 0 0 -21 -12 -46 -22 -45
-22 -45 -62 -39 -22 3 -43 9 -47 13 -5 5 -10 31 -13 59 -4 37 -1 54 10 63 22
19 18 30 -11 30 -14 0 -32 6 -40 14 -7 8 -24 12 -36 9 -20 -4 -19 -3 4 10 75
42 206 166 237 225 16 31 19 28 17 -18z m-110 -744 c7 -15 8 -30 2 -40 -6 -11
-5 -16 3 -16 8 0 5 -5 -5 -13 -9 -7 -16 -19 -14 -26 5 -22 -20 -24 -27 -2 -3
12 -11 21 -16 21 -13 0 -11 -17 2 -26 20 -12 -14 -24 -48 -18 -21 4 -33 2 -33
-5 0 -6 -6 -11 -14 -11 -9 0 -12 7 -9 19 3 10 0 28 -6 39 -9 17 -5 21 30 32
21 7 44 19 50 27 6 7 18 13 26 13 7 0 16 7 19 15 9 22 28 18 40 -9z"/>
<path d="M1272 2243 c10 -2 15 -10 11 -19 -4 -11 -9 -12 -19 -3 -23 19 -33 2
-22 -43 15 -62 29 -73 59 -50 13 11 35 23 48 27 20 6 23 4 18 -9 -4 -9 -2 -16
3 -16 6 0 10 5 10 11 0 6 12 9 28 7 22 -2 27 -7 24 -28 -2 -20 0 -22 9 -10 8
11 12 12 16 3 2 -7 19 -13 36 -13 27 1 29 2 14 11 -9 6 -15 14 -12 19 3 5 1
12 -5 15 -8 5 -7 11 2 22 10 12 9 17 -4 24 -9 5 -14 17 -11 28 4 15 -3 19 -43
25 -51 7 -189 6 -162 -1z"/>
<path d="M2240 590 c0 -11 -4 -20 -10 -20 -5 0 -10 -18 -10 -40 0 -38 -1 -40
-31 -40 l-31 0 7 -80 c5 -56 4 -80 -4 -80 -6 0 -11 17 -11 40 0 36 -2 40 -25
40 -22 0 -25 -4 -25 -38 0 -21 5 -43 10 -48 15 -15 1 -74 -19 -74 -14 -1 -14
-2 2 -11 9 -5 17 -16 17 -24 0 -7 5 -15 12 -17 13 -5 3 -58 -12 -58 -5 0 -7 6
-4 14 3 7 -2 20 -10 29 -9 9 -16 20 -16 26 0 6 -9 2 -20 -9 -13 -13 -20 -33
-20 -60 0 -44 5 -48 32 -23 16 14 18 15 18 0 0 -9 -4 -18 -9 -21 -11 -7 -3
-43 17 -73 13 -20 23 -23 83 -23 l69 0 -1 182 c-1 101 -6 174 -10 163 -5 -15
-8 -8 -8 23 -1 23 2 42 7 42 4 0 8 45 10 100 2 55 1 100 -3 100 -3 0 -5 -9 -5
-20z"/>
<path d="M217 463 c-12 -11 -8 -23 8 -23 20 0 19 -19 0 -26 -9 -4 -23 4 -36
20 -17 21 -24 24 -40 15 -11 -6 -18 -16 -16 -22 2 -7 -2 -16 -10 -22 -10 -8
-11 -23 -3 -68 5 -32 7 -71 4 -87 -9 -43 28 -54 38 -11 2 8 11 23 21 33 10 11
16 26 13 34 -3 8 4 24 15 35 11 11 18 27 15 35 -3 8 1 14 10 14 10 0 13 -7 8
-25 -6 -23 -4 -24 17 -17 24 9 44 58 28 68 -6 3 -14 17 -19 30 -9 23 -38 32
-53 17z"/>
</g>
</svg>
